<svg xmlns="http://www.w3.org/2000/svg" viewBox="0 0 64 64" role="img" aria-label="Clamshell Sentinel menu icon">
  <path fill="#000000" d="M12 43.5h40c2 0 3.6 1.6 3.6 3.6s-1.6 3.6-3.6 3.6H12c-2 0-3.6-1.6-3.6-3.6s1.6-3.6 3.6-3.6Z"/>
  <path fill="#000000" d="M17.5 18.5c0-3.5 2.8-6.3 6.3-6.3h16.4c3.5 0 6.3 2.8 6.3 6.3V41H17.5V18.5Zm6.3-.3a.3.3 0 0 0-.3.3V35h17V18.5a.3.3 0 0 0-.3-.3H23.8Z"/>
  <path fill="#000000" d="M32 17.8c5.8 3.7 10.8 4.1 10.8 4.1v7c0 7.2-4.4 11.1-10.8 14.1-6.4-3-10.8-6.9-10.8-14.1v-7s5-.4 10.8-4.1Zm-3.9 11.5a2.1 2.1 0 1 0 0-4.2 2.1 2.1 0 0 0 0 4.2Zm7.8 0a2.1 2.1 0 1 0 0-4.2 2.1 2.1 0 0 0 0 4.2Z"/>
</svg>
